<svg width="163" height="162" viewBox="0 0 163 162" fill="none" xmlns="http://www.w3.org/2000/svg">
<g style="mix-blend-mode:overlay">
<path d="M2.84862 13.6099C3.10166 13.3659 4.11382 13.3568 5.90318 13.5647C7.84617 13.8087 9.27404 13.655 10.1778 13.1128C9.7259 12.4079 9.29211 11.8476 8.85833 11.4319C7.86424 10.4288 6.54481 9.66062 4.92716 9.13647C3.30951 8.60327 2.32446 8.16949 1.98105 7.83511C1.71897 7.564 1.66475 7.14829 1.84549 6.60606C2.1166 5.96442 2.25216 5.57581 2.24312 5.44025C2.21601 5.3047 2.05334 4.78959 1.71897 3.91299C1.53823 3.36172 1.56534 2.97311 1.81838 2.7291C2.1166 2.42184 2.5775 2.43992 3.2101 2.79237C3.82463 3.14482 4.2313 3.30748 4.42108 3.28037C4.60182 3.25326 4.95427 2.99118 5.50554 2.50318C5.90318 2.1688 6.24659 2.15074 6.55385 2.458C6.92438 2.81949 7.5389 3.88587 8.42455 5.64812C9.31019 7.40133 10.1326 8.6846 10.9278 9.47987C11.8677 10.4197 12.6268 10.6005 13.2052 10.0221C13.9011 9.32624 14.2535 8.07911 14.2535 6.28975C14.2535 4.50039 14.3168 3.54245 14.4343 3.42497C14.6421 3.21712 14.8861 3.23519 15.1572 3.5063C15.6181 3.95816 16.3592 5.71138 17.3894 8.73883C18.6546 12.3808 20.0102 15.4354 21.4381 17.8935C23.1732 20.8396 25.9747 24.337 29.8607 28.4127C33.7467 32.4795 35.4818 34.7116 35.1023 35.1002C34.8854 35.3081 33.6111 34.4857 31.2253 32.5969C30.5927 32.0909 29.0112 30.7172 26.4898 28.5031C24.4836 26.7409 22.7756 25.3672 21.3387 24.3641C17.543 21.662 13.7565 19.5653 9.96086 18.0833C6.59 16.7186 4.98139 16.1041 5.13502 16.2577L4.90005 16.0318C4.75546 15.8782 4.44819 15.6432 3.9873 15.2998C3.53544 14.9654 3.20106 14.6943 2.99321 14.4774C2.65883 14.143 2.60461 13.8629 2.84862 13.6099Z" fill="url(#paint0_linear_88_1901)"/>
<path d="M57.4423 54.0059C57.7586 53.6806 58.1201 53.6716 58.5268 53.9788C58.59 55.0723 58.9154 55.9128 59.4937 56.4912C60.7951 57.7925 62.2772 58.642 63.94 59.0306C65.5938 59.4192 66.8048 59.2294 67.5639 58.4703C67.9073 58.1359 68.061 57.7383 68.0248 57.2864C68.0248 57.1238 67.9254 56.6358 67.7356 55.8315C67.6272 55.3977 67.6633 55.0904 67.835 54.9187C68.0248 54.7289 68.3682 54.8735 68.8743 55.3796C69.0731 55.5694 69.4979 56.4098 70.1847 57.8919C70.248 57.8558 70.3293 57.7925 70.4287 57.7021C70.6727 57.4581 70.8625 57.0876 70.9981 56.5725C71.1336 56.0664 71.2601 55.7592 71.3776 55.6417C71.9379 55.0814 72.7603 54.8374 73.8177 54.9097C74.8931 54.982 75.7606 55.3525 76.4204 56.0032C77.0349 56.6177 77.2247 57.0334 76.9987 57.2593C76.9174 57.3407 76.5921 57.3045 76.0046 57.1418C75.4263 56.9792 75.0377 56.9972 74.8479 57.187C74.7214 57.3135 74.6852 57.5214 74.7394 57.8016C74.7937 58.0817 74.8569 58.3619 74.9202 58.6601C75.0377 59.5728 74.7214 60.4043 73.9803 61.1453C73.6911 61.4345 73.0405 61.7869 72.0373 62.2117C72.3988 62.9889 72.7513 63.7751 73.1037 64.5794C73.3206 65.1578 73.3296 65.5645 73.1037 65.7814C72.8236 66.0525 72.3807 65.9892 71.7662 65.5645C70.4016 64.6156 69.4617 64.0011 68.9647 63.7299C67.4193 63.025 65.874 62.3111 64.3196 61.6062C62.4579 60.7386 61.0481 59.8259 60.0902 58.877C60.0631 58.8408 60.0179 58.7866 59.9727 58.7053C59.9275 58.6601 59.8823 58.6149 59.8823 58.6149C59.4214 58.145 58.9877 58.0998 58.6262 58.4703C58.346 58.7414 58.3641 59.1933 58.6714 59.8259C59.1232 60.7206 59.7829 61.7056 60.6505 62.772C61.6988 64.0733 62.2953 64.8325 62.4399 65.0403C62.8736 65.7 63.2894 66.9652 63.678 68.8359C64.0304 70.5078 64.4461 71.5832 64.916 72.0441C64.9432 72.0712 65.0155 72.1255 65.1329 72.2158C65.2143 72.2972 65.2775 72.3604 65.3318 72.4056C65.8288 72.9027 65.9192 73.3184 65.5938 73.6347C65.3498 73.8787 65.0064 73.8516 64.5546 73.5624C64.3919 73.463 63.8135 73.0111 62.8194 72.2068C62.2772 71.773 61.9157 71.6555 61.7078 71.8724C61.6265 71.9538 61.4819 72.2429 61.2741 72.74C61.0662 73.2461 60.8493 73.5985 60.6144 73.8244C60.3252 74.1136 59.8191 74.2492 59.0961 74.2402C58.3731 74.2221 57.9936 74.2402 57.9574 74.2673C57.8309 74.3938 57.8219 74.7372 57.9484 75.2975C58.0659 75.8578 58.102 76.156 58.0568 76.2012C57.9936 76.2645 57.7948 76.2374 57.4604 76.1199C57.126 75.9934 56.8278 75.8126 56.5838 75.5505C56.0687 75.0354 55.8066 74.213 55.8066 73.0924C55.8066 71.8634 56.141 70.9145 56.8187 70.2367C56.9995 70.056 57.4062 69.8571 58.0568 69.6312C58.6985 69.4053 59.1051 69.2155 59.2678 69.0528C59.322 69.0076 59.3401 68.9353 59.3401 68.8359C58.6081 68.854 57.8851 68.863 57.1622 68.8811C56.5657 68.863 56.15 68.7456 55.9331 68.5196C55.7343 68.3208 55.671 68.0678 55.7343 67.7424C55.9512 67.6611 56.4934 67.5165 57.3791 67.3087C57.9755 67.1641 58.4003 66.9652 58.6533 66.7032C59.3492 66.0163 59.5028 64.9861 59.1142 63.6396C58.6352 61.9677 57.8309 60.576 56.7193 59.4554C56.4301 59.1662 55.915 58.9764 55.174 58.877C54.4329 58.7776 54.0353 58.6962 53.963 58.642C53.7823 58.4613 53.5563 58.0998 53.8094 57.7835C54.0805 57.4491 54.704 57.2051 54.9932 56.9159C55.0655 56.8527 54.8486 56.9973 54.9932 56.9159C54.3697 56.5454 53.9811 56.0483 53.3214 55.8043C52.6617 55.5513 51.1886 54.4036 51.2247 53.6083C50.1584 53.6445 48.4955 53.4728 47.2303 52.1985C45.9651 50.9333 42.4045 45.755 41.4285 44.526C41.2929 44.3543 41.0579 44.1645 40.7868 43.8934C40.5699 43.6132 40.4163 43.4415 40.335 43.3511C39.8831 42.8902 39.4855 42.827 39.1601 43.1614C39.0607 43.2517 38.9342 43.4957 38.7986 43.8934C38.636 44.282 38.4733 44.5711 38.2926 44.7519C37.6871 45.3574 37.0093 45.3755 36.2411 44.7971C36.1236 42.7366 35.5091 41.1551 34.4156 40.0616C31.9575 37.5945 29.156 36.0039 26.0382 35.2719C22.9113 34.5489 20.6339 34.8923 19.2151 36.3202C18.5735 36.9619 18.2843 37.7029 18.3475 38.5434C18.3475 38.8506 18.5283 39.7634 18.8898 41.2816C19.1067 42.095 19.0434 42.6733 18.709 43.0077C18.3475 43.3782 17.6969 43.0891 16.757 42.1492C16.3865 41.7877 15.5731 40.2062 14.2989 37.4137C14.1814 37.477 14.0278 37.5945 13.847 37.7752C13.3952 38.2271 13.0337 38.941 12.7806 39.8989C12.5186 40.8478 12.2836 41.4353 12.0667 41.6431C11.0094 42.7005 9.47304 43.1614 7.45775 43.0258C5.43343 42.8902 3.7977 42.2034 2.55057 40.9563C1.39381 39.7995 1.03233 39.0133 1.45707 38.5885C1.6107 38.4349 2.22523 38.5072 3.31873 38.8145C4.41223 39.1217 5.14424 39.0946 5.50572 38.7241C5.74973 38.4891 5.81299 38.0915 5.71358 37.5583C5.60513 37.0342 5.48765 36.4919 5.37017 35.9407C5.15327 34.2146 5.74973 32.6511 7.14145 31.2504C7.68368 30.7081 8.9037 30.0394 10.7925 29.2532C10.1147 27.7982 9.44593 26.307 8.78621 24.7888C8.3705 23.7043 8.36147 22.9362 8.78621 22.5114C9.31941 21.9963 10.1418 22.1319 11.2985 22.9181C13.8741 24.7165 15.6454 25.8642 16.5853 26.3793C19.5043 27.7168 22.4143 29.0543 25.3333 30.3828C28.8578 32.0185 31.5056 33.7356 33.295 35.525C33.3583 35.5882 33.4306 35.6967 33.5209 35.8503C33.6113 35.9407 33.7017 36.031 33.7017 36.031C34.5692 36.9076 35.3736 36.998 36.0694 36.3021C36.5845 35.787 36.5574 34.9375 35.979 33.7446C35.1296 32.0456 33.8915 30.2021 32.2467 28.1868C30.2766 25.7377 29.156 24.3008 28.8758 23.9122C28.0534 22.6741 27.2853 20.2883 26.5533 16.7638C25.8845 13.6098 25.1073 11.5945 24.2217 10.7089C24.1675 10.6456 24.0319 10.5462 23.815 10.3926C23.6704 10.239 23.5439 10.1215 23.4445 10.0311C22.5046 9.09124 22.3329 8.31404 22.9474 7.69951C23.3993 7.23862 24.059 7.29284 24.9085 7.84411C25.2158 8.02485 26.3093 8.87435 28.18 10.3926C29.1921 11.2059 29.888 11.4228 30.2856 11.0252C30.4393 10.8806 30.7104 10.3384 31.099 9.38947C31.4966 8.44057 31.9033 7.76278 32.3371 7.33803C32.8793 6.7958 33.8282 6.53372 35.1928 6.56084C36.5665 6.58795 37.2804 6.57891 37.3346 6.51565C37.5786 6.27164 37.5877 5.63 37.3527 4.58169C37.1268 3.53338 37.0545 2.97307 37.1448 2.8827C37.2714 2.75618 37.6419 2.81042 38.2654 3.03635C38.898 3.27131 39.4493 3.62375 39.9283 4.11176C40.9043 5.07873 41.3833 6.63313 41.3833 8.75686C41.3833 11.0613 40.7416 12.8507 39.4764 14.134C39.1421 14.4684 38.3649 14.8479 37.1448 15.2727C35.9429 15.6974 35.1838 16.0679 34.8765 16.3662C34.7861 16.4475 34.7409 16.5831 34.7409 16.7728C36.1146 16.7457 37.4792 16.7186 38.8438 16.6825C39.9735 16.7186 40.7507 16.9355 41.1664 17.3693C41.5369 17.7398 41.6544 18.2188 41.5369 18.8243C41.1393 18.9779 40.109 19.258 38.4462 19.6466C37.3165 19.9178 36.5122 20.2973 36.0242 20.7853C34.7229 22.0867 34.4337 24.0206 35.1567 26.5691C36.0604 29.7231 37.5696 32.3529 39.6662 34.4495C40.2084 34.9918 41.1844 35.3532 42.5852 35.534C43.9769 35.7238 44.7361 35.8684 44.8626 35.9858C45.197 36.3202 45.2873 36.8625 45.1608 37.6035C45.0162 38.3536 44.6818 38.9952 44.1306 39.5375C44.004 39.6549 43.8052 39.7995 43.5341 39.9441C43.263 40.0978 43.0732 40.2243 42.9919 40.3146C42.5671 40.7394 42.6394 41.2364 43.2178 41.8148C43.4257 42.0317 43.8052 42.2576 44.3384 42.5288C46.0826 43.3963 50.4927 45.5291 51.7579 46.6497C53.0322 47.7613 53.3846 49.7946 53.3846 50.4543C54.4962 50.7616 55.418 51.4665 55.7704 52.1804C56.1229 52.8944 56.4392 53.7258 57.1983 54.4488C57.2887 54.2409 57.37 54.0873 57.4694 53.9969L57.4423 54.0059Z" fill="url(#paint1_linear_88_1901)"/>
<path d="M76.2491 70.535C76.1225 70.6615 75.5713 70.6705 74.6314 70.553C73.6012 70.4265 72.8421 70.5079 72.3631 70.797C72.5981 71.1676 72.833 71.4658 73.068 71.6917C73.5921 72.2249 74.297 72.6316 75.1465 72.9117C76.0051 73.1919 76.5292 73.4269 76.719 73.5986C76.8546 73.7432 76.8817 73.9601 76.7913 74.2492C76.6467 74.5836 76.5744 74.8005 76.5834 74.8638C76.5925 74.9361 76.6829 75.2072 76.8636 75.6771C76.954 75.9663 76.9449 76.1742 76.8094 76.3007C76.6557 76.4633 76.4027 76.4543 76.0774 76.2736C75.752 76.0838 75.5351 76.0024 75.4357 76.0115C75.3454 76.0205 75.1465 76.1651 74.8573 76.4182C74.6495 76.5899 74.4597 76.6079 74.3061 76.4453C74.1163 76.2555 73.7819 75.6952 73.312 74.7553C72.8421 73.8245 72.4083 73.1467 71.9835 72.722C71.4865 72.2249 71.0798 72.1255 70.7725 72.4328C70.402 72.8033 70.2213 73.463 70.2213 74.4209C70.2213 75.3789 70.1942 75.8759 70.1219 75.9392C70.0134 76.0476 69.8869 76.0386 69.7333 75.894C69.4893 75.65 69.0916 74.7282 68.5404 73.1196C67.8716 71.1856 67.1486 69.568 66.3986 68.2576C65.4768 66.6942 63.9856 64.8415 61.9252 62.6726C59.8647 60.5127 58.9429 59.3289 59.1507 59.1301C59.2682 59.0216 59.946 59.4554 61.2022 60.4585C61.5366 60.7296 62.377 61.4526 63.7145 62.6365C64.7719 63.5763 65.6846 64.2993 66.4437 64.8325C68.459 66.2694 70.4743 67.381 72.4806 68.1672C74.2699 68.8902 75.1285 69.2155 75.0381 69.1342L75.1646 69.2517C75.2459 69.333 75.4086 69.4595 75.6526 69.6403C75.8876 69.821 76.0683 69.9656 76.1768 70.0741C76.3485 70.2548 76.3756 70.4084 76.2491 70.535Z" fill="url(#paint2_linear_88_1901)"/>
<path d="M112.443 7.7085C107.572 -2.56676 91.179 -0.723179 91.6941 11.7029C91.8658 15.9142 93.2123 21.5805 97.6406 23.406C102.548 25.4304 106.768 23.5687 108.078 18.3724C108.684 16.1402 107.663 13.917 105.801 13.4109C103.939 12.9049 101.924 14.2966 101.328 16.5288C101.075 17.4506 101.111 18.3723 101.364 19.1676C97.0622 19.8996 93.5196 17.0439 94.595 11.2149C95.3993 6.81381 100.614 4.06651 104.925 5.45824C117.007 9.34422 111.567 25.1864 106.271 32.7414C97.9297 44.6434 81.0754 50.9513 67.0136 46.2068C60.064 43.8662 52.6626 38.9048 50.1864 31.5937C47.5927 23.9573 50.0147 12.7693 57.1812 8.16939C65.405 2.89168 80.6055 4.05747 82.7925 15.6341C83.7324 20.5955 82.5304 26.8492 78.0028 29.8586C74.8488 31.9552 66.1189 33.5367 65.0254 27.9337C65.3146 28.0963 65.6309 28.2229 65.9563 28.2771C68.1884 28.6838 70.4387 26.5962 70.9809 23.6139C71.5231 20.6316 70.1495 17.8934 67.9173 17.4867C65.7936 17.1071 63.6789 18.9778 63.0101 21.7161C62.9649 21.8245 62.9288 21.9601 62.9017 22.1409C61.9257 28.0692 65.2333 36.7359 72.4088 36.6274C84.2565 36.4376 87.3382 22.3939 84.1119 13.0946C80.1717 1.73492 65.893 -4.41938 55.5816 3.72311C36.224 19.014 51.0901 50.0657 73.1318 52.0177C85.4946 53.1112 99.4661 49.162 106.94 38.4981C110.311 33.6903 113.085 28.015 114.124 22.1951C122.384 22.1408 133.825 18.6163 134.359 9.15443C134.575 5.34979 131.449 0.605282 127.111 1.33729C122.899 2.05123 121.173 4.9883 121.11 9.05502C121.11 9.39844 121.146 9.62437 121.191 9.79608C121.408 11.0522 122.33 12.0373 123.559 12.1277C125.032 12.2361 126.315 11.0342 126.433 9.43458C126.541 7.83501 125.448 6.46137 123.984 6.35292C123.604 6.32581 123.243 6.38906 122.908 6.51558C124.436 3.86769 129.198 3.98518 131.187 5.92817C135.1 9.73282 131.105 14.3689 127.391 15.9414C123.387 17.6403 118.905 18.9326 114.513 19.014C114.757 15.1822 114.179 11.3414 112.452 7.68139L112.443 7.7085Z" fill="url(#paint3_linear_88_1901)"/>
<path d="M3.71695 55.5874C-4.4165 65.8898 1.73781 80.1775 13.0975 84.1177C22.4058 87.344 36.4496 84.2623 36.6303 72.4056C36.7387 65.2301 28.0721 61.9224 22.1437 62.8985C21.963 62.9256 21.8274 62.9708 21.719 63.0069C18.9807 63.6757 17.101 65.7994 17.4896 67.9141C17.8963 70.1463 20.6345 71.5199 23.6168 70.9777C26.59 70.4355 28.6776 68.1852 28.28 65.953C28.2167 65.6187 28.0902 65.3114 27.9365 65.0222C33.5396 66.1157 31.9581 74.8456 29.8615 77.9996C26.8521 82.5272 20.6074 83.7201 15.637 82.7893C4.06036 80.6023 2.89456 65.4018 8.17227 57.1779C12.7722 50.0115 23.9602 47.5895 31.5966 50.1832C38.9077 52.6684 43.86 60.0608 46.2097 67.0104C50.9452 81.0722 44.6372 97.9265 32.7353 106.268C25.1802 111.564 9.33807 116.995 5.45209 104.921C4.06036 100.611 6.80766 95.3961 11.2088 94.5918C17.0377 93.5254 19.9025 97.068 19.1615 101.361C18.3662 101.108 17.4444 101.071 16.5226 101.324C14.2904 101.93 12.8987 103.936 13.4048 105.807C13.9109 107.669 16.134 108.69 18.3662 108.084C23.5626 106.774 25.4152 102.554 23.3999 97.6464C21.5744 93.2182 15.9081 91.8716 11.6968 91.6999C-0.729337 91.1938 -2.57292 107.587 7.70234 112.449C11.3624 114.184 15.2032 114.763 19.0349 114.519C18.9536 118.92 17.6613 123.402 15.9623 127.406C14.3898 131.12 9.75378 135.105 5.94913 131.201C4.00614 129.204 3.88866 124.451 6.53655 122.923C6.41003 123.258 6.34677 123.619 6.37388 123.999C6.48232 125.463 7.85597 126.565 9.45555 126.448C11.0461 126.33 12.248 125.047 12.1486 123.583C12.0583 122.354 11.0642 121.432 9.81704 121.215C9.64533 121.161 9.4194 121.125 9.07599 121.134C5.0183 121.197 2.07219 122.923 1.35825 127.135C0.62624 131.472 5.37075 134.599 9.16636 134.382C18.6283 133.849 22.1528 122.408 22.207 114.148C28.0269 113.109 33.7023 110.335 38.51 106.964C49.1739 99.4899 53.1231 85.5185 52.0206 73.1556C50.0595 51.114 19.0078 36.2479 3.71695 55.6055L3.71695 55.5874Z" fill="url(#paint4_linear_88_1901)"/>
<path d="M136.699 3.18092L160.358 3.18092C161.885 3.18092 163.367 5.15103 161.732 6.97654C161.117 7.66336 160.286 7.85313 159.21 7.85313C156.942 7.85313 156.59 6.81386 155.288 6.81386L142.013 6.81386C140.386 6.81386 139.473 7.20246 137.837 8.31403C136.916 8.9376 135.75 3.18092 136.708 3.18092L136.699 3.18092Z" fill="url(#paint5_linear_88_1901)"/>
<path d="M2.25293 136.253L2.25293 159.912C2.25293 161.44 4.22303 162.922 6.04854 161.286C6.73536 160.672 6.92514 159.84 6.92514 158.756C6.92514 156.487 5.88587 156.135 5.88587 154.834L5.88587 141.558C5.88587 139.931 6.27447 139.019 7.38604 137.383C8.0096 136.461 2.26197 135.295 2.26197 136.253L2.25293 136.253Z" fill="url(#paint6_linear_88_1901)"/>
</g>
<defs>
<linearGradient id="paint0_linear_88_1901" x1="18.3779" y1="35.1317" x2="18.3779" y2="2.23939" gradientUnits="userSpaceOnUse">
<stop stop-color="#F7EFDF"/>
<stop offset="1" stop-color="#F1CD96"/>
</linearGradient>
<linearGradient id="paint1_linear_88_1901" x1="39.1879" y1="76.2344" x2="39.1879" y2="2.81589" gradientUnits="userSpaceOnUse">
<stop stop-color="#F7EFDF"/>
<stop offset="1" stop-color="#F1CD96"/>
</linearGradient>
<linearGradient id="paint2_linear_88_1901" x1="68.0225" y1="76.5577" x2="68.0225" y2="59.1138" gradientUnits="userSpaceOnUse">
<stop stop-color="#F7EFDF"/>
<stop offset="1" stop-color="#F1CD96"/>
</linearGradient>
<linearGradient id="paint3_linear_88_1901" x1="90.4966" y1="52.1935" x2="90.4966" y2="5.71166e-06" gradientUnits="userSpaceOnUse">
<stop stop-color="#F7EFDF"/>
<stop offset="1" stop-color="#F1CD96"/>
</linearGradient>
<linearGradient id="paint4_linear_88_1901" x1="26.0995" y1="134.393" x2="26.0995" y2="46.6479" gradientUnits="userSpaceOnUse">
<stop stop-color="#F7EFDF"/>
<stop offset="1" stop-color="#F1CD96"/>
</linearGradient>
<linearGradient id="paint5_linear_88_1901" x1="149.398" y1="8.36127" x2="149.398" y2="3.18092" gradientUnits="userSpaceOnUse">
<stop stop-color="#F7EFDF"/>
<stop offset="1" stop-color="#F1CD96"/>
</linearGradient>
<linearGradient id="paint6_linear_88_1901" x1="4.84314" y1="162" x2="4.84313" y2="135.895" gradientUnits="userSpaceOnUse">
<stop stop-color="#F7EFDF"/>
<stop offset="1" stop-color="#F1CD96"/>
</linearGradient>
</defs>
</svg>
