<svg width="897" height="726" viewBox="0 0 897 726" fill="none" xmlns="http://www.w3.org/2000/svg">
<rect width="895.5" height="724" transform="translate(0.5 1)" fill="#031C00"/>
<path d="M692.052 65.3512L688.89 66.9456L684.214 69.4294L679.851 70.9828L676.267 71.9146L672.839 73.6224L669.566 75.6403L666.606 78.4357L663.957 80.1435L658.813 81.0752L654.294 82.007L651.956 81.0752L647.896 82.007L644.164 83.0945L639.021 84.182L634.812 85.1138L631.384 87.5976L628.892 89.4612C628.892 89.4612 626.086 90.2372 625.619 90.2372C625.151 90.2372 620.475 91.169 620.475 91.169L617.359 90.5473L611.593 89.4598L607.385 87.9064L605.826 86.0429V82.6683L606.761 79.9877L605.081 78.2594L603.955 76.5721V75.3739L605.047 73.3109L604.891 70.3612L604.734 68.0318L602.396 66.9442L600.215 66.7885L598.345 66.3226L594.604 66.6327L592.734 68.0304L590.241 69.1179L586.968 70.3598L583.384 71.2916H580.111L577.305 71.6017L573.877 71.7575L570.137 71.6017L566.864 72.3778L562.812 72.5335H559.228L556.422 72.6893L552.838 73.621L550.033 74.0869L546.137 74.2427H538.969L536.476 74.0869L533.983 73.9312H532.113L530.242 74.2413L528.061 74.5514L524.944 74.8616L523.074 75.3275L522.45 76.1035L520.891 76.5694L518.553 77.3454L516.827 78.2567L514.969 80.7624V82.3759L515.28 84.1779L515.591 86.0415L516.527 88.2152L517.15 90.8547L517.462 92.2524L517.15 93.8058L516.683 95.6694L516.059 98.3089L514.656 99.3965L512.631 101.104L510.45 102.036L507.333 103.434L506.241 104.365L505.306 105.453L504.527 107.006L504.06 105.764L501.567 107.162L499.386 108.56L498.294 110.578L497.203 111.975L495.956 113.993L495.177 116.323C495.177 116.323 492.528 124.628 495.177 130.957L497.359 137.129L500.164 141.788L503.749 147.689L506.398 151.104L508.891 154.054L511.072 156.228L512.786 159.333L514.968 162.283L516.838 166.01L518.552 171.445L521.201 175.948H528.604L531.02 183.246L531.955 187.594L539.124 194.426L543.954 198.464L547.227 204.519L548.162 208.4L552.058 209.488L555.642 210.885H560.275L565.46 212.283H569.665L576.835 216.01L580.731 217.874L585.25 220.513H587.171L587.544 219.108L589.145 218.961L591.627 220.515L593.197 222.222L594.132 222.688L595.691 221.135H598.029L599.432 222.222V223.93L599.237 225.057L597.874 225.948L598.342 228.278L598.809 229.054H600.541L601.071 228.031L602.218 228.259L603.406 229.054H604.6L605.953 229.908V231.1L604.575 231.537L604.887 232.469L605.952 233.241V234.986L604.574 235.73L605.952 236.571L606.444 237.593L609.093 239.922V240.932H609.772L610.496 242.407L611.389 242.901L610.488 243.339L610.496 244.427L615.015 246.29L619.224 247.378L622.808 248.62L626.548 250.949L629.197 252.968L631.379 254.832L632.314 257.316L633.561 261.043H634.361L636.521 259.801L636.987 261.043L636.21 261.819L635.431 262.285L635.898 262.751L636.99 263.992L638.549 265.546L639.64 268.961L640.732 270.825L642.291 272.999L643.694 275.328L645.096 277.502L644.317 279.365L645.564 280.919L643.85 282.161L645.564 284.307L647.123 285.888L648.526 288.372L649.149 290.855L649.928 293.185V296.359C649.928 296.359 649.617 299.551 649.461 299.862C649.304 300.172 647.902 302.657 647.902 302.657L646.343 304.365L645.564 305.607L643.85 307.47L642.603 310.11L641.668 312.283V315.389L641.044 318.184L640.266 321.756L639.33 324.705L639.019 328.277L639.175 332.78V335.264C639.175 335.264 640.735 337.903 640.735 338.213C640.735 338.523 642.294 341.163 642.294 341.163L644.631 345.2L646.19 347.684L649.151 351.721L653.514 352.031L658.657 352.807L664.268 353.429L666.293 354.982C666.293 354.982 669.758 354.827 671.611 354.982C673.463 355.138 678.137 354.206 678.137 354.206L683.436 353.585H689.046L695.28 352.809L699.956 352.033L704.786 350.479L708.838 349.237L712.111 347.84L712.579 346.442L711.332 341.939L711.8 335.418L713.046 333.4L716.163 330.916L718.501 328.277L720.839 325.171V318.083L720.215 315.233V312.749L720.839 310.472L724.579 308.246L726.293 306.383L729.721 304.985L731.746 306.073H741.72L745.461 305.297L749.669 304.055L751.072 300.793L751.696 298.464C751.696 298.464 752.787 296.911 752.942 297.222C753.098 297.532 754.967 297.066 754.967 297.066L758.708 297.376L761.357 297.532L765.72 297.998L770.551 297.222L773.511 296.29L774.914 293.961L777.719 294.271L780.057 295.358L780.836 296.135L782.082 295.513L784.107 297.376L785.199 295.823L788.159 297.687L790.808 298.463L793.769 299.084H794.236L794.393 298.774L794.236 298.464H793.612L793.456 298.154L793.612 297.998H794.08L794.548 298.154L795.171 298.31L795.795 298.465H796.73L797.509 298.931H799.38L800.471 298.155L801.25 297.534L802.029 296.912L802.807 295.67L803.431 294.738L804.21 293.962L805.145 293.186L806.08 292.41L807.327 291.944L808.262 291.789L809.353 291.944L810.6 292.566L811.846 292.876L812.625 292.72L813.249 292.41L813.873 291.168L814.652 290.081L815.743 289.459L816.522 288.372L817.925 287.596L819.171 286.664L821.041 287.13L824.314 287.596L826.652 287.285L827.744 285.266L828.522 283.868L829.301 282.315L830.08 280.297L831.015 278.123L832.729 276.104L834.132 274.241L836.002 271.911L837.094 270.513L836.626 268.496L835.691 265.39L835.067 262.129L834.756 259.334L834.6 258.092L833.041 255.918L832.105 254.676L829.145 253.744L826.496 252.657L824.937 251.881L824.158 248.931L825.404 246.757L826.496 244.739L827.899 242.1V239.616L824.314 237.597L820.886 236.199L817.77 234.801L816.367 233.87L815.432 230.454C815.432 230.454 815.121 228.746 815.121 228.591C815.121 228.435 814.964 226.573 814.964 226.573C814.964 226.573 817.302 226.728 817.457 226.728C817.612 226.728 819.639 226.884 819.639 226.884L822.288 227.35L824.469 227.66L827.43 227.97H830.703L832.105 228.126L834.287 228.436H836.468L838.961 228.746L840.675 229.056L843.168 229.678L844.727 227.97L845.818 226.883L846.754 225.175L847.532 224.243L848 221.914V220.2L846.597 218.497L845.506 217.255L845.195 216.013L844.416 214.771L843.792 213.373L844.416 212.286L845.351 210.732L845.818 209.335L845.975 208.403L845.664 206.85L845.196 205.452L844.728 204.52L844.417 202.967L844.573 201.879L845.041 201.103L845.82 200.482L846.287 199.86L844.728 199.55L842.547 199.394H840.365L838.806 198.772L836.625 197.996L834.754 197.375L833.352 196.909L831.638 196.443L828.521 195.821L826.495 195.045L824.157 194.735L822.131 194.579H821.353L820.106 195.201L818.547 195.977L817.923 196.443L816.209 196.599L814.339 196.754L812.469 197.065L810.91 196.909L809.039 196.753L807.014 196.597L804.988 195.976L802.962 194.888L801.56 195.82L799.689 196.908L797.352 197.373L794.546 197.995L792.208 198.771L789.403 199.081L789.87 200.013L788.156 200.479L787.065 200.169L786.909 199.393L784.883 199.703L783.637 199.859C783.637 199.859 782.702 200.014 782.546 200.014C782.389 200.014 780.52 200.17 780.52 200.17L778.961 200.48H777.87V203.741L776.935 205.139L776.778 205.605H775.687L775.219 203.897L774.441 203.587L773.505 203.277L772.414 202.501L772.57 202.035L773.349 202.191L773.505 200.949C773.505 200.949 771.324 200.949 771.168 201.105C771.011 201.26 769.142 201.57 768.986 201.57C768.83 201.57 767.272 202.036 767.272 202.036L764.934 202.502L763.843 201.881L763.064 200.793L761.505 200.017L760.258 199.551L758.856 198.93C758.856 198.93 758.232 199.706 758.077 199.861C757.921 200.017 756.674 200.793 756.674 200.793L755.428 201.881L754.493 203.278L753.714 204.832L750.597 204.366L748.104 204.21C748.104 204.21 746.234 203.744 746.079 203.744C745.924 203.744 743.43 203.434 743.43 203.434L742.806 201.726L742.182 200.329C742.182 200.329 741.091 201.26 740.936 201.416C740.78 201.572 738.911 203.124 738.911 203.124L736.105 202.814L734.391 202.192L732.832 201.416L730.962 200.64L728.937 200.484L727.223 199.553L728.002 197.999L728.313 195.825L728.469 193.652L728.625 191.168L728.782 189.46L727.847 187.131L728.003 184.801L727.847 182.317L727.068 180.61L726.444 178.28L725.976 176.572L724.73 177.194L723.171 178.282L722.079 176.728L720.52 175.02L719.429 174.089L719.585 173.001L718.026 171.448L717.247 170.672V166.945L718.183 165.391L718.339 163.683L717.871 160.734L717.715 158.716L717.559 156.386L717.87 153.591L718.338 151.107L718.649 148.623L719.273 146.76L719.74 144.896L720.675 143.343L721.299 141.013L721.923 138.684L722.079 135.113L722.236 133.249L723.327 132.007L724.262 129.368L724.419 127.038L725.198 125.485L726.912 122.845L728.314 120.671L729.249 117.566L729.873 114.926L730.497 111.977L731.121 109.337L731.9 107.008L732.367 105.144L731.589 102.66L731.277 101.418L731.745 98.4688L732.212 95.985L732.524 94.2772L732.056 91.016L731.277 88.5321L730.653 86.8243L730.186 84.9608C730.186 84.9608 730.497 82.9429 730.497 82.6314C730.497 82.3199 730.808 79.9918 730.808 79.9918L731.12 77.8181L731.898 75.8002L731.431 72.3846V70.2109L728.471 69.5893L725.51 68.8133L722.705 68.3474L720.523 67.7257L717.874 67.2598L715.069 66.6382L712.576 66.1723L709.616 65.3963L705.252 64.6203C705.252 64.6203 702.136 64.4645 701.979 64.3101C701.823 64.1544 698.863 64 698.863 64H695.642L693.565 64.776L691.539 65.552" stroke="url(#paint0_linear_56_118)" stroke-dasharray="2 2"/>
<path fill-rule="evenodd" clip-rule="evenodd" d="M728.14 598.453C727.822 598.453 727.517 598.58 727.292 598.805C727.067 599.03 726.94 599.335 726.94 599.653C726.94 599.971 727.067 600.277 727.292 600.502C727.517 600.727 727.822 600.853 728.14 600.853H745.958C746.276 600.853 746.581 600.727 746.806 600.502C747.031 600.277 747.158 599.971 747.158 599.653C747.158 599.335 747.031 599.03 746.806 598.805C746.581 598.58 746.276 598.453 745.958 598.453H728.14Z" fill="url(#paint1_linear_56_118)"/>
<path fill-rule="evenodd" clip-rule="evenodd" d="M737.047 545C728.198 545 721 552.2 721 561.048C721 565.147 722.045 569.178 724.035 572.761L735.999 594.296C736.103 594.483 736.255 594.639 736.439 594.747C736.624 594.856 736.834 594.913 737.048 594.913C737.262 594.913 737.472 594.856 737.656 594.747C737.841 594.639 737.993 594.483 738.097 594.296L750.061 572.761C752.051 569.178 753.096 565.147 753.096 561.048C753.096 552.199 745.896 545 737.047 545C737.047 545 737.047 545 737.047 545ZM737.048 553.909C740.976 553.909 744.187 557.119 744.187 561.048C744.187 564.977 740.976 568.187 737.048 568.187C733.119 568.187 729.909 564.977 729.909 561.048C729.909 557.119 733.119 553.909 737.048 553.909Z" fill="url(#paint2_linear_56_118)"/>
<path d="M699.676 584.203C699.103 584.203 698.658 584.091 698.34 583.869C698.054 583.646 697.831 583.376 697.672 583.057C697.545 582.739 697.449 582.421 697.385 582.103C697.322 581.753 697.29 581.403 697.29 581.053C697.29 580.163 697.433 579.24 697.719 578.286C698.006 577.3 698.34 576.361 698.722 575.471C699.135 574.58 699.501 573.816 699.819 573.18C700.551 571.812 701.394 570.46 702.348 569.124C703.302 567.788 704.352 566.643 705.497 565.689C706.674 564.703 707.883 564.066 709.124 563.78C709.283 563.748 709.426 563.732 709.553 563.732C709.68 563.7 709.808 563.685 709.935 563.685C710.476 563.685 710.905 563.796 711.223 564.019C711.541 564.209 711.748 564.464 711.844 564.782C711.844 564.814 711.844 564.846 711.844 564.877C711.875 564.909 711.891 564.941 711.891 564.973C711.891 565.196 711.828 565.307 711.7 565.307C711.605 565.307 711.525 565.18 711.462 564.925C711.43 564.766 711.287 564.655 711.032 564.591C710.778 564.496 710.492 564.448 710.173 564.448C709.124 564.448 708.058 564.893 706.976 565.784C705.927 566.675 704.909 567.804 703.923 569.172C702.936 570.508 702.046 571.892 701.251 573.323C701.155 573.514 700.948 573.912 700.63 574.516C700.344 575.121 700.026 575.805 699.676 576.568C699.358 577.331 699.087 578.047 698.865 578.715C698.737 579.002 698.737 579.145 698.865 579.145C698.928 579.145 699.008 579.033 699.103 578.811C699.676 577.475 700.344 576.377 701.107 575.518C701.903 574.659 702.714 573.944 703.541 573.371C704.368 572.862 705.195 572.608 706.022 572.608C706.627 572.608 707.136 572.782 707.549 573.132C707.963 573.451 708.169 573.991 708.169 574.755C708.169 575.327 708.058 575.948 707.835 576.616C707.613 577.252 707.247 577.984 706.738 578.811C706.229 579.638 705.609 580.449 704.877 581.244C704.177 582.008 703.43 582.66 702.634 583.201C701.839 583.741 701.06 584.059 700.296 584.155C700.169 584.187 700.058 584.203 699.962 584.203C699.867 584.203 699.771 584.203 699.676 584.203ZM699.962 583.678C700.694 583.678 701.537 583.28 702.491 582.485C703.414 581.69 704.241 580.751 704.972 579.67C705.736 578.556 706.197 577.538 706.356 576.616C706.452 576.139 706.499 575.725 706.499 575.375C706.499 574.643 706.356 574.166 706.07 573.944C705.784 573.721 705.45 573.61 705.068 573.61C704.368 573.61 703.668 573.896 702.968 574.468C702.268 575.041 701.616 575.757 701.012 576.616C700.439 577.443 699.962 578.286 699.58 579.145C699.199 580.004 698.96 580.719 698.865 581.292C698.833 581.451 698.801 581.61 698.769 581.769C698.769 581.896 698.769 582.024 698.769 582.151C698.769 583.169 699.167 583.678 699.962 583.678Z" fill="url(#paint3_linear_56_118)"/>
<path d="M685.104 583.963C684.531 583.963 684.118 583.772 683.863 583.391C683.609 583.009 683.481 582.532 683.481 581.959C683.481 581.514 683.529 581.084 683.625 580.671C683.688 580.48 683.847 580.003 684.102 579.239C684.388 578.476 684.754 577.633 685.199 576.71C685.676 575.788 686.185 574.993 686.726 574.325C687.267 573.625 687.824 573.275 688.396 573.275C688.651 573.275 688.778 573.339 688.778 573.466C688.778 573.593 688.714 573.72 688.587 573.847C687.951 574.611 687.346 575.518 686.774 576.567C686.233 577.585 685.772 578.556 685.39 579.478C685.04 580.401 684.833 581.1 684.77 581.578C684.674 582.595 684.977 583.104 685.676 583.104C686.281 583.104 686.917 582.834 687.585 582.293C688.285 581.721 688.953 581.005 689.589 580.146C690.257 579.255 690.83 578.333 691.307 577.379C691.816 576.392 692.373 575.47 692.977 574.611C693.581 573.72 694.202 573.275 694.838 573.275C695.092 573.275 695.22 573.339 695.22 573.466C695.22 573.593 695.156 573.72 695.029 573.847C694.393 574.611 693.788 575.518 693.216 576.567C692.675 577.585 692.214 578.556 691.832 579.478C691.482 580.401 691.275 581.1 691.211 581.578C691.116 582.595 691.418 583.104 692.118 583.104C692.818 583.104 693.534 582.786 694.265 582.15C694.997 581.514 695.681 580.782 696.317 579.955C696.953 579.128 697.462 578.428 697.844 577.856C697.971 577.728 698.051 577.665 698.083 577.665C698.178 577.665 698.226 577.744 698.226 577.903C698.226 578.031 698.178 578.174 698.083 578.333C697.574 579.16 696.953 580.019 696.222 580.91C695.522 581.768 694.774 582.5 693.979 583.104C693.184 583.677 692.373 583.963 691.546 583.963C690.973 583.963 690.559 583.772 690.305 583.391C690.05 583.009 689.923 582.532 689.923 581.959C689.923 581.514 689.971 581.084 690.066 580.671L690.162 580.241C689.557 581.037 688.921 581.753 688.253 582.389C687.617 583.025 686.981 583.454 686.344 583.677C685.867 583.868 685.454 583.963 685.104 583.963Z" fill="url(#paint4_linear_56_118)"/>
<path d="M644.422 586.731C643.531 586.731 642.784 586.525 642.179 586.111C641.607 585.729 641.32 585.045 641.32 584.059C641.32 583.041 641.702 581.912 642.465 580.671C643.261 579.399 644.39 578.206 645.853 577.093C647.285 576.011 648.907 575.136 650.72 574.468C652.534 573.8 654.442 573.291 656.446 572.941C658.482 572.56 660.486 572.305 662.459 572.178C663.795 569.951 664.94 567.629 665.894 565.211C666.849 562.794 667.437 560.519 667.66 558.388C667.183 558.133 666.61 557.958 665.942 557.863C665.274 557.736 664.606 557.672 663.938 557.672C663.27 557.64 662.697 557.624 662.22 557.624C661.743 557.624 661.457 557.624 661.361 557.624C659.707 557.752 658.085 557.958 656.494 558.245C654.935 558.499 653.727 558.801 652.868 559.151C652.072 559.469 651.436 559.819 650.959 560.201C650.482 560.551 650.243 560.933 650.243 561.346C650.243 561.887 650.72 562.428 651.675 562.969C651.738 563 651.77 563.064 651.77 563.159C651.77 563.255 651.738 563.334 651.675 563.398C651.611 563.462 651.548 563.478 651.484 563.446C650.243 562.746 649.623 561.935 649.623 561.012C649.623 559.803 650.466 558.881 652.152 558.245C652.629 558.054 653.44 557.863 654.585 557.672C655.762 557.449 657.083 557.274 658.546 557.147C660.041 557.02 661.488 556.956 662.888 556.956C664.574 556.956 666.037 557.084 667.278 557.338C668.55 557.561 669.266 557.99 669.425 558.626V558.77C669.425 558.897 669.409 559.04 669.378 559.199C669.346 559.326 669.298 559.454 669.234 559.581C668.821 561.585 668.153 563.668 667.23 565.832C666.34 567.963 665.242 570.062 663.938 572.13C664.256 572.098 664.574 572.082 664.892 572.082C665.21 572.082 665.512 572.082 665.799 572.082C666.626 572.082 667.405 572.098 668.137 572.13C668.869 572.162 669.584 572.21 670.284 572.273C670.984 572.305 671.668 572.369 672.336 572.464C673.036 572.56 673.688 572.671 674.292 572.798C674.324 572.639 674.356 572.496 674.388 572.369C674.451 572.242 674.499 572.114 674.531 571.987C675.103 570.301 675.772 568.583 676.535 566.834C677.33 565.084 678.11 563.43 678.873 561.871C679.637 560.312 680.32 558.992 680.925 557.911C681.529 556.797 681.959 556.066 682.213 555.716C682.372 555.461 682.611 555.286 682.929 555.191C683.247 555.064 683.533 555 683.788 555C683.979 555 684.122 555.032 684.217 555.095C684.313 555.159 684.313 555.254 684.217 555.382C683.772 556.018 683.183 556.972 682.452 558.245C681.752 559.485 680.988 560.933 680.161 562.587C679.334 564.209 678.539 565.927 677.776 567.74C677.012 569.553 676.36 571.351 675.819 573.132C677.314 573.45 678.555 573.816 679.541 574.23C680.559 574.643 681.163 575.009 681.354 575.327C681.386 575.359 681.402 575.407 681.402 575.47C681.402 575.598 681.307 575.693 681.116 575.757C680.957 575.788 680.845 575.741 680.782 575.613C680.654 575.359 680.13 575.073 679.207 574.755C678.285 574.405 677.092 574.087 675.628 573.8C675.342 574.786 675.103 575.757 674.913 576.711C674.754 577.633 674.674 578.508 674.674 579.335C674.674 580.608 674.913 581.673 675.39 582.532C675.867 583.391 676.646 583.948 677.728 584.202C677.887 584.234 678.03 584.25 678.157 584.25C678.316 584.282 678.475 584.298 678.634 584.298C679.08 584.298 679.541 584.186 680.018 583.964C680.527 583.773 681.004 583.423 681.45 582.914C681.482 582.85 681.561 582.819 681.688 582.819C681.847 582.819 681.975 582.866 682.07 582.962C682.165 583.057 682.165 583.153 682.07 583.248C681.561 583.821 681.02 584.234 680.448 584.489C679.875 584.743 679.287 584.87 678.682 584.87C678.332 584.87 677.966 584.823 677.585 584.727C676.026 584.377 674.929 583.614 674.292 582.437C673.656 581.26 673.338 579.892 673.338 578.333C673.338 576.743 673.577 575.136 674.054 573.514C673.354 573.419 672.606 573.323 671.811 573.228C671.016 573.132 670.205 573.069 669.378 573.037C668.964 572.973 668.519 572.941 668.041 572.941C667.564 572.941 667.071 572.941 666.562 572.941C666.053 572.941 665.528 572.941 664.988 572.941C664.479 572.941 663.938 572.973 663.365 573.037C662.379 574.5 661.298 575.916 660.121 577.284C658.975 578.62 657.719 579.892 656.351 581.101C655.587 581.769 654.792 582.405 653.965 583.009C653.17 583.614 652.359 584.155 651.532 584.632C651.118 584.855 650.514 585.125 649.718 585.443C648.923 585.793 648.048 586.095 647.094 586.35C646.171 586.604 645.281 586.731 644.422 586.731ZM645.758 585.729C647.476 585.729 649.225 585.204 651.007 584.155C652.788 583.105 654.458 581.848 656.017 580.385C658.116 578.413 660.073 575.995 661.886 573.132C659.977 573.259 658.037 573.53 656.065 573.943C654.092 574.325 652.247 574.866 650.53 575.566C648.844 576.234 647.412 577.109 646.235 578.19C645.344 578.985 644.581 579.892 643.945 580.91C643.34 581.928 643.038 582.85 643.038 583.678C643.038 584.282 643.245 584.775 643.658 585.157C644.072 585.538 644.772 585.729 645.758 585.729Z" fill="url(#paint5_linear_56_118)"/>
<path d="M633.473 579.137C633.473 580.001 633.272 580.745 632.87 581.368C632.468 581.971 631.955 582.464 631.332 582.846C630.729 583.228 630.046 583.499 629.282 583.66C628.538 583.841 627.805 583.931 627.081 583.931C626.418 583.931 625.684 583.871 624.88 583.75C624.076 583.65 623.322 583.439 622.619 583.117C621.915 582.795 621.322 582.363 620.84 581.821C620.378 581.258 620.146 580.544 620.146 579.68C620.146 579.117 620.257 578.584 620.478 578.082C620.719 577.579 621.041 577.177 621.443 576.876C621.202 577.76 621.182 578.615 621.383 579.439C621.584 580.243 621.956 580.956 622.498 581.579C623.041 582.202 623.714 582.705 624.518 583.087C625.322 583.449 626.187 583.63 627.111 583.63C627.875 583.63 628.589 583.549 629.252 583.388C629.935 583.207 630.538 582.946 631.061 582.604C631.584 582.263 631.996 581.841 632.297 581.338C632.599 580.836 632.749 580.253 632.749 579.589C632.749 578.785 632.438 578.172 631.815 577.75C631.212 577.308 630.448 576.946 629.523 576.665C628.599 576.363 627.604 576.092 626.538 575.851C625.473 575.61 624.478 575.288 623.553 574.886C622.629 574.484 621.855 573.951 621.232 573.288C620.629 572.625 620.327 571.73 620.327 570.605C620.327 569.78 620.508 569.077 620.87 568.494C621.252 567.891 621.744 567.399 622.347 567.017C622.95 566.635 623.634 566.353 624.398 566.172C625.162 565.992 625.945 565.901 626.749 565.901C627.252 565.901 627.825 565.971 628.468 566.112C629.111 566.253 629.714 566.474 630.277 566.775C630.84 567.077 631.312 567.459 631.694 567.921C632.096 568.363 632.297 568.896 632.297 569.519C632.297 569.941 632.177 570.373 631.935 570.816C631.694 571.258 631.312 571.71 630.79 572.172C631.051 571.248 631.081 570.424 630.88 569.7C630.679 568.976 630.327 568.373 629.825 567.891C629.342 567.389 628.729 567.007 627.986 566.745C627.262 566.484 626.488 566.353 625.664 566.353C625.081 566.353 624.508 566.434 623.945 566.595C623.403 566.755 622.91 567.007 622.468 567.348C622.046 567.67 621.704 568.072 621.443 568.554C621.182 569.037 621.051 569.6 621.051 570.243C621.051 571.127 621.353 571.831 621.956 572.353C622.579 572.856 623.352 573.278 624.277 573.62C625.202 573.941 626.197 574.233 627.262 574.494C628.327 574.735 629.322 575.037 630.247 575.399C631.171 575.76 631.935 576.233 632.538 576.816C633.161 577.378 633.473 578.152 633.473 579.137Z" fill="url(#paint6_linear_56_118)"/>
<path d="M603.64 568.494C603.64 568.213 603.59 567.992 603.49 567.831C603.409 567.65 603.299 567.519 603.158 567.439C603.037 567.338 602.907 567.278 602.766 567.258C602.625 567.218 602.495 567.198 602.374 567.198L604.726 566.203C604.907 566.122 605.017 566.112 605.057 566.172C605.118 566.213 605.148 566.253 605.148 566.293V568.585C605.148 569.087 605.238 569.338 605.419 569.338C605.56 569.338 605.761 569.177 606.022 568.856C606.444 568.373 606.907 567.951 607.409 567.59C607.932 567.208 608.464 566.896 609.007 566.655C609.57 566.414 610.123 566.233 610.665 566.112C611.228 565.971 611.751 565.901 612.233 565.901C613.017 565.901 613.751 566.022 614.434 566.263C615.118 566.484 615.701 566.856 616.183 567.378C616.685 567.881 617.077 568.534 617.359 569.338C617.64 570.142 617.781 571.107 617.781 572.233V580.645C617.781 581.167 617.821 581.61 617.901 581.971C617.982 582.313 618.082 582.594 618.203 582.816C618.324 583.037 618.454 583.218 618.595 583.358C618.756 583.479 618.907 583.569 619.047 583.63H615.007C615.168 583.569 615.319 583.479 615.459 583.358C615.62 583.218 615.761 583.037 615.881 582.816C616.002 582.594 616.092 582.313 616.153 581.971C616.233 581.61 616.273 581.177 616.273 580.675V572.022C616.253 570.132 615.841 568.725 615.037 567.801C614.233 566.876 613.118 566.414 611.691 566.414C610.726 566.414 609.841 566.605 609.037 566.987C608.253 567.348 607.57 567.821 606.987 568.404C606.404 568.987 605.952 569.63 605.63 570.333C605.309 571.037 605.148 571.71 605.148 572.353V580.645C605.148 581.167 605.188 581.61 605.268 581.971C605.349 582.313 605.449 582.594 605.57 582.816C605.691 583.037 605.821 583.218 605.962 583.358C606.123 583.479 606.273 583.569 606.414 583.63H602.374C602.535 583.569 602.686 583.479 602.826 583.358C602.987 583.218 603.128 583.037 603.248 582.816C603.369 582.594 603.459 582.313 603.52 581.971C603.6 581.61 603.64 581.177 603.64 580.675V568.494Z" fill="url(#paint7_linear_56_118)"/>
<path d="M589.78 573.228C589.117 573.228 588.645 573.469 588.363 573.952C588.082 574.434 587.961 575.037 588.001 575.761C588.062 576.484 588.273 577.268 588.635 578.112C588.996 578.957 589.489 579.74 590.112 580.464C590.735 581.188 591.479 581.791 592.343 582.273C593.207 582.755 594.162 582.997 595.207 582.997C596.433 582.997 597.519 582.836 598.464 582.514C599.428 582.193 600.263 581.74 600.966 581.157C600.263 581.901 599.398 582.504 598.373 582.967C597.368 583.409 596.202 583.63 594.876 583.63C593.469 583.63 592.233 583.379 591.167 582.876C590.122 582.374 589.248 581.71 588.544 580.886C587.841 580.042 587.308 579.097 586.946 578.052C586.604 576.987 586.434 575.901 586.434 574.796C586.434 573.328 586.665 572.042 587.127 570.936C587.609 569.811 588.223 568.876 588.966 568.133C589.73 567.389 590.584 566.836 591.529 566.474C592.494 566.092 593.459 565.901 594.423 565.901C595.449 565.901 596.373 566.052 597.197 566.354C598.021 566.655 598.715 567.117 599.278 567.741C599.861 568.344 600.293 569.107 600.574 570.032C600.856 570.936 600.966 572.002 600.906 573.228H589.78ZM599.428 572.926C599.348 571.72 599.137 570.705 598.795 569.881C598.454 569.037 598.021 568.354 597.499 567.831C596.996 567.308 596.423 566.926 595.78 566.685C595.157 566.444 594.514 566.323 593.851 566.323C592.986 566.323 592.222 566.484 591.559 566.806C590.916 567.127 590.373 567.54 589.931 568.042C589.509 568.524 589.177 569.057 588.936 569.64C588.715 570.203 588.594 570.735 588.574 571.238C588.574 571.72 588.675 572.122 588.876 572.444C589.077 572.766 589.388 572.926 589.81 572.926H599.428Z" fill="url(#paint8_linear_56_118)"/>
<path d="M584.135 562.886C584.135 563.228 584.024 563.509 583.803 563.73C583.602 563.931 583.331 564.032 582.989 564.032C582.647 564.032 582.376 563.931 582.175 563.73C581.974 563.509 581.873 563.228 581.873 562.886C581.873 562.544 581.974 562.273 582.175 562.072C582.376 561.871 582.647 561.771 582.989 561.771C583.331 561.771 583.602 561.871 583.803 562.072C584.024 562.273 584.135 562.544 584.135 562.886ZM582.235 568.494C582.235 568.213 582.185 567.992 582.084 567.831C582.004 567.65 581.893 567.519 581.753 567.439C581.632 567.338 581.501 567.278 581.361 567.258C581.22 567.218 581.089 567.198 580.969 567.198L583.32 566.203C583.501 566.122 583.612 566.112 583.652 566.172C583.712 566.213 583.743 566.253 583.743 566.293V580.645C583.743 581.167 583.783 581.609 583.863 581.971C583.944 582.313 584.044 582.594 584.165 582.816C584.285 583.037 584.416 583.218 584.557 583.358C584.717 583.479 584.868 583.569 585.009 583.63H580.969C581.13 583.569 581.28 583.479 581.421 583.358C581.582 583.218 581.723 583.037 581.843 582.816C581.964 582.594 582.054 582.313 582.114 581.971C582.195 581.609 582.235 581.177 582.235 580.675V568.494Z" fill="url(#paint9_linear_56_118)"/>
<path d="M576.316 562.283C576.316 562.002 576.266 561.781 576.165 561.62C576.085 561.439 575.974 561.308 575.834 561.228C575.713 561.127 575.582 561.057 575.442 561.017C575.301 560.977 575.17 560.957 575.05 560.957L577.402 559.992C577.582 559.911 577.693 559.901 577.733 559.962C577.793 560.002 577.824 560.042 577.824 560.082V580.645C577.824 581.167 577.864 581.61 577.944 581.971C578.025 582.313 578.125 582.595 578.246 582.816C578.366 583.037 578.497 583.218 578.638 583.358C578.799 583.479 578.949 583.569 579.09 583.63H575.05C575.211 583.569 575.361 583.479 575.502 583.358C575.663 583.218 575.804 583.037 575.924 582.816C576.045 582.595 576.135 582.313 576.196 581.971C576.276 581.61 576.316 581.177 576.316 580.675V562.283Z" fill="url(#paint10_linear_56_118)"/>
<path d="M557.382 580.916C557.201 581.399 557.1 581.801 557.08 582.122C557.08 582.444 557.121 582.715 557.201 582.936C557.301 583.137 557.412 583.298 557.533 583.419C557.673 583.519 557.784 583.6 557.864 583.66L555 583.63C555.201 583.569 555.492 583.348 555.874 582.966C556.276 582.564 556.668 581.861 557.05 580.856L564.166 562.494L564.98 562.464L572.487 580.856C572.889 581.841 573.261 582.524 573.603 582.906C573.965 583.288 574.236 583.529 574.417 583.63H570.648C570.749 583.569 570.849 583.489 570.95 583.389C571.07 583.268 571.161 583.117 571.221 582.936C571.281 582.735 571.301 582.484 571.281 582.182C571.261 581.881 571.161 581.519 570.98 581.097C570.638 580.293 570.196 579.559 569.653 578.896C569.131 578.213 568.517 577.63 567.814 577.147C567.131 576.665 566.387 576.293 565.583 576.032C564.779 575.75 563.935 575.61 563.05 575.61C562.608 575.61 562.146 575.65 561.663 575.73C561.201 575.811 560.749 575.972 560.306 576.213C559.884 576.434 559.492 576.745 559.131 577.147C558.769 577.529 558.467 578.022 558.226 578.625L557.382 580.916ZM563.925 563.941L559.251 576.062C559.191 576.223 559.171 576.323 559.191 576.363C559.211 576.404 559.251 576.414 559.312 576.394C559.392 576.374 559.482 576.333 559.583 576.273C559.683 576.213 559.784 576.152 559.884 576.092C560.387 575.811 560.909 575.61 561.452 575.489C562.015 575.368 562.568 575.308 563.11 575.308C564.256 575.308 565.352 575.529 566.397 575.972C567.442 576.414 568.387 577.067 569.231 577.931C569.271 577.971 569.321 578.032 569.382 578.112C569.462 578.172 569.533 578.223 569.593 578.263C569.673 578.283 569.723 578.263 569.744 578.203C569.764 578.142 569.723 578.002 569.623 577.781L563.925 563.941Z" fill="url(#paint11_linear_56_118)"/>
<path d="M641.509 266.06L635.43 253.928C633.5 251.232 629.641 245.667 629.641 244.974V238.908C629.641 237.753 629.062 233.131 629.641 229.954C630.22 226.776 629.641 226.776 626.457 220.999C623.562 219.555 623.273 220.999 619.799 220.999C616.326 220.999 616.326 218.4 614.878 216.089C613.431 213.778 611.115 214.356 608.51 213.49C605.905 212.623 603.589 212.045 602.431 211.756C601.505 211.525 591.818 210.697 587.09 210.312L572.617 204.535C572.038 203.861 570.359 201.531 568.275 197.603C565.67 192.693 565.67 192.981 564.222 188.938C562.775 184.894 561.907 181.139 560.459 175.073C559.012 169.007 558.144 163.808 557.565 157.454C556.986 151.099 555.828 152.254 552.933 143.3C550.039 134.346 551.486 139.545 549.17 134.635C546.855 129.724 548.591 128.28 549.17 123.37C549.749 118.459 550.618 120.481 552.933 117.015C555.249 113.549 557.275 114.704 560.459 113.549C563.643 112.394 566.249 112.683 574.643 110.949C583.037 109.216 581.59 109.794 585.353 108.061C589.116 106.328 591.432 105.461 597.221 105.461H607.352C609.089 105.461 623.852 101.418 630.22 101.418C636.588 101.418 641.509 102.862 647.588 101.418C653.666 99.9733 651.061 97.9514 654.535 93.9076C657.939 89.9441 659.119 89.3104 662.708 87.383L662.929 87.2641C666.692 85.2422 669.008 84.3757 673.35 80.6209C677.692 76.866 679.428 78.3101 682.034 73.1109C684.639 67.9117 688.691 70.8001 691.875 70.8001C695.059 70.8001 699.401 69.9336 705.48 70.8001C710.343 71.4934 715.611 72.6295 717.637 73.1109C723.523 74.7477 735.816 78.079 737.9 78.3101C740.505 78.5989 748.899 80.0432 754.11 80.6209C759.32 81.1986 769.162 84.3759 773.214 86.9755C777.267 89.5752 781.03 89.2863 783.924 89.2863C786.819 89.2863 791.161 88.7086 796.371 86.9755C801.581 85.2425 807.66 87.8421 810.265 89.2863C812.871 90.7305 820.975 97.9516 824.16 103.151C827.344 108.35 827.633 115.571 828.501 118.749C829.196 121.29 834.58 129.051 837.185 132.613C840.369 137.812 846.738 148.557 846.738 149.944C846.738 151.677 854.553 162.364 854.553 165.541V180.561C854.553 183.739 858.316 189.804 859.474 192.404C860.632 195.004 864.395 203.669 864.395 207.135C864.395 210.601 867 219.555 867 222.733C867 225.275 865.263 235.923 864.395 240.93L849.922 266.06C848.957 272.799 846.969 287.088 846.738 290.323C846.506 293.558 841.817 305.15 839.501 310.542L810.265 331.05C806.309 335.094 797.297 343.181 792.898 343.181C788.498 343.181 779.872 349.536 776.109 352.713L729.216 366H721.979H705.48H684.928H664.087C662.64 366 654.245 359.068 652.219 356.757C650.193 354.446 650.193 345.781 650.193 343.181C650.193 340.582 648.166 334.805 648.166 331.05C648.166 327.295 652.219 321.518 652.219 318.918C652.219 316.319 653.666 310.253 654.245 306.498C654.824 302.743 653.666 294.944 652.219 290.323C650.772 285.701 650.193 282.235 648.166 279.058C646.545 276.516 643.053 269.333 641.509 266.06Z" stroke="#E0E4EF" stroke-width="0.25"/>
<path d="M717.511 366C717.256 368.895 717.255 369.475 717.256 372.37C717.256 376.874 717.767 376.134 717.767 382.794C717.767 389.453 719.06 392.722 719.812 396.981C720.579 401.324 721.346 402.483 720.834 407.405C720.446 411.143 720.068 412.327 719.812 417.249C719.556 422.172 719.556 422.172 718.534 426.225C717.268 431.244 717.767 429.989 717.767 432.885C717.767 435.78 718.278 438.965 718.278 442.15C718.278 445.335 717.511 449.968 717.511 454.601C717.511 459.233 717 462.708 717 465.893C717 468.441 717.256 471.105 717.767 474L722 482L731.5 498C733.667 508.5 738.1 529.7 738.5 530.5C738.9 531.3 750.667 551.167 756.5 561V612L760.5 647L764.5 676.5L761.5 702L751 725" stroke="white" stroke-width="0.25"/>
<path d="M717.385 366C717.385 363.977 717.385 359.641 717.385 357.618C717.385 352.704 717.962 350.97 717.962 346.634C717.962 340.557 717.962 341.72 717.962 337.384C717.962 333.916 718.264 326.979 717.674 322.643C716.807 316.284 714.579 308.95 717.962 302.699C721.717 295.762 717.835 290.559 718.829 286.801C721.428 276.974 722.005 276.396 718.829 274.661C715.226 272.694 714.497 270.904 714.208 267.146C713.752 261.205 713.631 260.209 715.075 256.162C716.031 253.481 716.807 250.381 720.273 249.514C719.503 245.757 718.193 239.513 717.962 236.507C717.674 232.749 716.23 227.547 712.764 218.586C709.299 209.626 710.165 214.251 708.144 210.204C706.122 206.157 702.946 201.532 699.769 194.595C696.593 187.658 694.86 185.924 692.55 181.588C690.239 177.253 687.352 172.917 682.442 166.269C677.533 159.621 671.757 158.175 669.447 151.238C667.599 145.689 661.746 146.999 659.051 148.348C655.008 148.348 646.056 148.348 642.591 148.348C638.259 148.348 627.285 151.238 625.264 151.238C623.242 151.238 609.381 150.371 607.359 148.348C605.338 146.325 603.894 145.457 602.161 143.145C600.429 140.833 596.674 141.411 593.787 139.676C590.899 137.942 583.968 134.763 582.235 133.028C580.503 131.294 570.684 128.404 565.775 125.513C560.866 122.623 552.78 120.599 551.047 120.021C549.314 119.443 540.651 116.553 537.474 114.818C534.298 113.084 526.789 110.194 523.035 108.748C519.281 107.303 512.35 106.147 509.463 104.991C506.575 103.835 497.334 98.9209 496.179 97.4757C495.024 96.0304 488.67 91.6947 486.649 91.6947C485.032 91.6947 480.199 91.6947 477.985 91.6947L467.589 89.3824C465.087 88.5152 459.561 86.5497 457.482 85.6247C455.403 84.6998 450.84 83.8905 448.819 83.6014L439 81L418.5 71.5L377 63.5L350 60.5L267 39.5C261.667 40.1667 250.6 41.1 249 39.5C247.4 37.9 234.667 33.1667 228.5 31H204L155.5 19L134.5 7.5H93.5L71 1H41.5L0.5 3.5" stroke="white" stroke-width="0.25"/>
<path d="M742.783 445.744L738 451.197H739.24L745.439 455.77L753.056 457.705L761.735 455.77L766.341 457.705L763.684 462.63L764.924 469.314L758.37 474.943H761.735L762.975 479.341L766.695 481.627V490.247L779.448 498.338L787.774 499.393L793.973 495.875L790.785 490.247L780.157 476.35L789.368 478.109L792.733 483.035V485.673L796.453 489.015L799.996 492.885L806.904 493.94L820.011 495.875L827.451 499.393L824.971 501.856L824.617 504.846V509.244L830.816 510.651L835.953 508.188L839.85 501.856L847.466 504.846L845.695 514.521L847.466 523.668H856.323L867.659 528.241L881.298 530L892.103 527.01L896 519.798L893.52 499.393L888.383 497.107L884.841 495.875H881.298L879.881 490.247H875.276V492.885H871.733L867.659 493.94L866.774 495.875H861.105L858.448 492.885L845.695 489.015V492.885H843.215V489.015L839.85 487.08H832.233H827.451L824.971 481.627L821.783 476.35L820.011 474.943H810.8L809.383 471.425L816.114 448.206L806.904 453.659V457.705L802.298 463.51H796.453L792.733 459.64L799.996 448.206L802.298 442.402L798.756 437.476L783.522 433.079L780.157 427.098L787.774 424.108L785.117 419.007C783.995 420.18 781.432 422.525 780.157 422.525C778.882 422.525 770.651 420.18 766.695 419.007L766.341 414.961H783.522L786.534 411.795L783.522 403L770.415 408.277L758.37 405.287V420.062L761.735 422.525V428.681L766.341 430.616V436.069L776.791 442.402L778.563 448.206V459.64C776.201 458.526 771.265 456.192 770.415 455.77C769.565 455.348 767.345 452.545 766.341 451.197L759.61 448.206L753.056 437.476L742.783 445.744Z" stroke="url(#paint12_linear_56_118)" stroke-width="0.5" stroke-dasharray="2 2"/>
<defs>
<linearGradient id="paint0_linear_56_118" x1="494" y1="209.5" x2="848" y2="209.5" gradientUnits="userSpaceOnUse">
<stop stop-color="#F7EFDF"/>
<stop offset="1" stop-color="#F1CD96"/>
</linearGradient>
<linearGradient id="paint1_linear_56_118" x1="726.94" y1="599.653" x2="747.158" y2="599.653" gradientUnits="userSpaceOnUse">
<stop stop-color="#F7EFDF"/>
<stop offset="1" stop-color="#F1CD96"/>
</linearGradient>
<linearGradient id="paint2_linear_56_118" x1="721" y1="569.956" x2="753.096" y2="569.956" gradientUnits="userSpaceOnUse">
<stop stop-color="#F7EFDF"/>
<stop offset="1" stop-color="#F1CD96"/>
</linearGradient>
<linearGradient id="paint3_linear_56_118" x1="697.29" y1="573.944" x2="711.891" y2="573.944" gradientUnits="userSpaceOnUse">
<stop stop-color="#F7EFDF"/>
<stop offset="1" stop-color="#F1CD96"/>
</linearGradient>
<linearGradient id="paint4_linear_56_118" x1="683.481" y1="578.619" x2="698.226" y2="578.619" gradientUnits="userSpaceOnUse">
<stop stop-color="#F7EFDF"/>
<stop offset="1" stop-color="#F1CD96"/>
</linearGradient>
<linearGradient id="paint5_linear_56_118" x1="641.32" y1="570.866" x2="684.289" y2="570.866" gradientUnits="userSpaceOnUse">
<stop stop-color="#F7EFDF"/>
<stop offset="1" stop-color="#F1CD96"/>
</linearGradient>
<linearGradient id="paint6_linear_56_118" x1="620.146" y1="574.916" x2="633.473" y2="574.916" gradientUnits="userSpaceOnUse">
<stop stop-color="#F7EFDF"/>
<stop offset="1" stop-color="#F1CD96"/>
</linearGradient>
<linearGradient id="paint7_linear_56_118" x1="602.374" y1="574.765" x2="619.047" y2="574.765" gradientUnits="userSpaceOnUse">
<stop stop-color="#F7EFDF"/>
<stop offset="1" stop-color="#F1CD96"/>
</linearGradient>
<linearGradient id="paint8_linear_56_118" x1="586.434" y1="574.766" x2="600.966" y2="574.766" gradientUnits="userSpaceOnUse">
<stop stop-color="#F7EFDF"/>
<stop offset="1" stop-color="#F1CD96"/>
</linearGradient>
<linearGradient id="paint9_linear_56_118" x1="580.969" y1="572.7" x2="585.009" y2="572.7" gradientUnits="userSpaceOnUse">
<stop stop-color="#F7EFDF"/>
<stop offset="1" stop-color="#F1CD96"/>
</linearGradient>
<linearGradient id="paint10_linear_56_118" x1="575.05" y1="571.776" x2="579.09" y2="571.776" gradientUnits="userSpaceOnUse">
<stop stop-color="#F7EFDF"/>
<stop offset="1" stop-color="#F1CD96"/>
</linearGradient>
<linearGradient id="paint11_linear_56_118" x1="555" y1="573.062" x2="574.417" y2="573.062" gradientUnits="userSpaceOnUse">
<stop stop-color="#F7EFDF"/>
<stop offset="1" stop-color="#F1CD96"/>
</linearGradient>
<linearGradient id="paint12_linear_56_118" x1="738" y1="466.5" x2="896" y2="466.5" gradientUnits="userSpaceOnUse">
<stop stop-color="#F7EFDF"/>
<stop offset="1" stop-color="#F1CD96"/>
</linearGradient>
</defs>
</svg>
